<?xml version="1.0" standalone="no"?>
<!DOCTYPE svg PUBLIC "-//W3C//DTD SVG 20010904//EN"
 "http://www.w3.org/TR/2001/REC-SVG-20010904/DTD/svg10.dtd">
<svg version="1.0" xmlns="http://www.w3.org/2000/svg"
 width="266.000000pt" height="224.000000pt" viewBox="0 0 266.000000 224.000000"
 preserveAspectRatio="xMidYMid meet">

<g transform="translate(0.000000,224.000000) scale(0.100000,-0.100000)"
fill="#000000" stroke="none">
<path d="M40 2022 c0 -21 93 -81 165 -107 39 -13 156 -43 260 -65 585 -126
988 -241 1176 -336 78 -39 301 -179 321 -201 14 -15 15 -27 6 -73 -17 -95 -14
-356 5 -430 22 -83 116 -273 162 -325 l35 -40 -26 64 c-43 108 -51 202 -31
344 20 139 62 323 112 497 19 65 35 121 35 124 0 10 -182 117 -322 190 -353
183 -651 270 -1108 320 -318 36 -790 58 -790 38z"/>
<path d="M375 1769 c11 -16 89 -48 427 -174 365 -136 614 -254 907 -429 107
-64 195 -115 196 -114 1 2 5 48 9 103 l7 100 -53 41 c-229 178 -786 383 -1261
464 -131 22 -242 27 -232 9z"/>
<path d="M806 1481 c-3 -5 6 -16 20 -26 57 -37 1048 -656 1067 -666 19 -11 20
-9 13 52 -14 117 -13 116 -90 168 -271 181 -720 409 -911 462 -78 21 -91 23
-99 10z"/>
<path d="M1126 1119 c10 -12 98 -75 194 -142 96 -66 276 -193 398 -281 123
-89 242 -174 264 -190 22 -16 39 -25 36 -20 -2 5 -20 41 -40 81 -19 40 -38 81
-40 91 -5 19 -93 79 -392 270 -179 114 -292 175 -365 196 -71 21 -78 20 -55
-5z"/>
</g>
</svg>
